# xmcd CD database file
#
# Track frame offsets:
#	150
#	17744
#	46443
#	75287
#	96410
#	114673
#	131383
#	157471
#	182398
#	202212
#	219166
#	234125
#
# Disc length: 3390 seconds
#
# Revision: 0
# Processed by: cddbd v1.5.2PL0 Copyright (c) Steve Scherf et al.
# Submitted via: CDex 1.70beta2
#
DISCID=9a0d3c0c
DTITLE=Various Artist - Jazz and Flowers
DYEAR=2008
DGENRE=Jazz
TTITLE0=Tonight Alive
TTITLE1=Scott Air
TTITLE2=Wearing Out My Shoes
TTITLE3=Jazz Set
TTITLE4=Spirits of Daja
TTITLE5=Hot 28
TTITLE6=Dr Eiff
TTITLE7=Smooth Operator(niche and DJ shinsuke Remix)
TTITLE8=Pastime Paradise
TTITLE9=That's Saxism
TTITLE10=Sunset(Edit)
TTITLE11=Diamanche
EXTD=YEAR: 2008
EXTT0=
EXTT1=
EXTT2=
EXTT3=
EXTT4=
EXTT5=
EXTT6=
EXTT7=
EXTT8=
EXTT9=
EXTT10=
EXTT11=
PLAYORDER=
